<svg width="27" height="27" viewBox="0 0 27 27" fill="none" xmlns="http://www.w3.org/2000/svg">
<path d="M12.3421 9.29775C12.0949 9.46257 11.9195 9.68837 11.7938 9.93984C11.5854 10.3566 11.0786 10.5256 10.6618 10.3172C10.245 10.1088 10.076 9.60196 10.2844 9.18516C10.5103 8.73351 10.8623 8.25618 11.406 7.89366C11.9551 7.52762 12.6493 7.3125 13.5 7.3125C14.24 7.3125 15.0401 7.53153 15.6762 8.00859C16.3348 8.50255 16.8047 9.26989 16.8047 10.2656C16.8047 11.4282 16.2279 12.2002 15.6497 12.758C15.4368 12.9633 15.2015 13.1599 14.9985 13.3294C14.9405 13.3778 14.8847 13.4244 14.8333 13.468C14.6279 13.6421 14.4675 13.788 14.3438 13.9275V15.4688C14.3438 15.9347 13.966 16.3125 13.5 16.3125C13.0341 16.3125 12.6563 15.9347 12.6563 15.4688V13.8111C12.6563 13.5454 12.7315 13.2442 12.9345 12.984C13.1807 12.6683 13.4805 12.4025 13.7421 12.1808C13.8136 12.1201 13.882 12.063 13.9477 12.008L13.9488 12.0071C14.1419 11.8457 14.3128 11.7028 14.4782 11.5434C14.8915 11.1447 15.1172 10.7828 15.1172 10.2656C15.1172 9.85511 14.9426 9.56776 14.6637 9.35859C14.3623 9.13253 13.932 9 13.5 9C12.9446 9 12.584 9.13645 12.3421 9.29775Z" fill="#03A64B"/>
<path d="M14.625 19.125C14.625 19.7463 14.1213 20.25 13.5 20.25C12.8787 20.25 12.375 19.7463 12.375 19.125C12.375 18.5037 12.8787 18 13.5 18C14.1213 18 14.625 18.5037 14.625 19.125Z" fill="#03A64B"/>
<path fill-rule="evenodd" clip-rule="evenodd" d="M13.5 1.125C6.66548 1.125 1.125 6.66548 1.125 13.5C1.125 20.3345 6.66548 25.875 13.5 25.875C20.3345 25.875 25.875 20.3345 25.875 13.5C25.875 6.66548 20.3345 1.125 13.5 1.125ZM2.8125 13.5C2.8125 7.59746 7.59746 2.8125 13.5 2.8125C19.4025 2.8125 24.1875 7.59746 24.1875 13.5C24.1875 19.4025 19.4025 24.1875 13.5 24.1875C7.59746 24.1875 2.8125 19.4025 2.8125 13.5Z" fill="#03A64B"/>
</svg>
