<svg width="27" height="27" viewBox="0 0 27 27" fill="none" xmlns="http://www.w3.org/2000/svg">
<path d="M14.625 8.4375C14.625 9.05882 14.1213 9.5625 13.5 9.5625C12.8787 9.5625 12.375 9.05882 12.375 8.4375C12.375 7.81618 12.8787 7.3125 13.5 7.3125C14.1213 7.3125 14.625 7.81618 14.625 8.4375Z" fill="#03A64B"/>
<path d="M11.25 12.6562C11.25 12.1903 11.6278 11.8125 12.0937 11.8125H13.7812C14.2472 11.8125 14.625 12.1903 14.625 12.6562V17.4375H15.4687C15.9347 17.4375 16.3125 17.8153 16.3125 18.2812C16.3125 18.7472 15.9347 19.125 15.4687 19.125H12.0937C11.6278 19.125 11.25 18.7472 11.25 18.2812C11.25 17.8153 11.6278 17.4375 12.0937 17.4375H12.9375V13.5H12.0937C11.6278 13.5 11.25 13.1222 11.25 12.6562Z" fill="#03A64B"/>
<path fill-rule="evenodd" clip-rule="evenodd" d="M13.5 1.125C6.66548 1.125 1.125 6.66548 1.125 13.5C1.125 20.3345 6.66548 25.875 13.5 25.875C20.3345 25.875 25.875 20.3345 25.875 13.5C25.875 6.66548 20.3345 1.125 13.5 1.125ZM2.8125 13.5C2.8125 7.59746 7.59746 2.8125 13.5 2.8125C19.4025 2.8125 24.1875 7.59746 24.1875 13.5C24.1875 19.4025 19.4025 24.1875 13.5 24.1875C7.59746 24.1875 2.8125 19.4025 2.8125 13.5Z" fill="#03A64B"/>
</svg>
